<svg width="84" height="52" viewBox="0 0 84 52" fill="none" xmlns="http://www.w3.org/2000/svg">
<g filter="url(#filter0_d_18_49)">
<rect x="7" y="9" width="70" height="34" rx="8" fill="#474747"/>
<path d="M42 2L49.7942 9.5H34.2058L42 2Z" fill="#474747"/>
<path d="M32.4261 25H31.1932C31.1203 24.6454 30.9927 24.3338 30.8104 24.0653C30.6314 23.7969 30.4126 23.5715 30.1541 23.3892C29.8989 23.2036 29.6155 23.0644 29.304 22.9716C28.9924 22.8788 28.6676 22.8324 28.3295 22.8324C27.7131 22.8324 27.1546 22.9882 26.6541 23.2997C26.157 23.6113 25.7609 24.0703 25.4659 24.6768C25.1742 25.2834 25.0284 26.0275 25.0284 26.9091C25.0284 27.7907 25.1742 28.5348 25.4659 29.1413C25.7609 29.7479 26.157 30.2069 26.6541 30.5185C27.1546 30.83 27.7131 30.9858 28.3295 30.9858C28.6676 30.9858 28.9924 30.9394 29.304 30.8466C29.6155 30.7538 29.8989 30.6162 30.1541 30.4339C30.4126 30.2483 30.6314 30.0213 30.8104 29.7528C30.9927 29.4811 31.1203 29.1695 31.1932 28.8182H32.4261C32.3333 29.3385 32.1643 29.8042 31.919 30.2152C31.6738 30.6262 31.3688 30.9759 31.0043 31.2642C30.6397 31.5492 30.2304 31.7663 29.7763 31.9155C29.3255 32.0646 28.8433 32.1392 28.3295 32.1392C27.4612 32.1392 26.6889 31.9271 26.0128 31.5028C25.3366 31.0786 24.8047 30.4754 24.4169 29.6932C24.0291 28.911 23.8352 27.983 23.8352 26.9091C23.8352 25.8352 24.0291 24.9072 24.4169 24.125C24.8047 23.3428 25.3366 22.7396 26.0128 22.3153C26.6889 21.8911 27.4612 21.679 28.3295 21.679C28.8433 21.679 29.3255 21.7536 29.7763 21.9027C30.2304 22.0518 30.6397 22.2706 31.0043 22.5589C31.3688 22.844 31.6738 23.192 31.919 23.603C32.1643 24.0107 32.3333 24.4763 32.4261 25ZM37.3617 32.1591C36.6723 32.1591 36.0674 31.995 35.5471 31.6669C35.03 31.3388 34.6257 30.8797 34.334 30.2898C34.0456 29.6998 33.9015 29.0104 33.9015 28.2216C33.9015 27.4261 34.0456 26.7318 34.334 26.1385C34.6257 25.5452 35.03 25.0845 35.5471 24.7564C36.0674 24.4283 36.6723 24.2642 37.3617 24.2642C38.0511 24.2642 38.6543 24.4283 39.1713 24.7564C39.6917 25.0845 40.0961 25.5452 40.3844 26.1385C40.6761 26.7318 40.8219 27.4261 40.8219 28.2216C40.8219 29.0104 40.6761 29.6998 40.3844 30.2898C40.0961 30.8797 39.6917 31.3388 39.1713 31.6669C38.6543 31.995 38.0511 32.1591 37.3617 32.1591ZM37.3617 31.1051C37.8854 31.1051 38.3162 30.9709 38.6543 30.7024C38.9924 30.4339 39.2426 30.081 39.405 29.6435C39.5674 29.206 39.6486 28.732 39.6486 28.2216C39.6486 27.7112 39.5674 27.2356 39.405 26.7947C39.2426 26.3539 38.9924 25.9976 38.6543 25.7259C38.3162 25.4541 37.8854 25.3182 37.3617 25.3182C36.838 25.3182 36.4071 25.4541 36.0691 25.7259C35.731 25.9976 35.4808 26.3539 35.3184 26.7947C35.156 27.2356 35.0748 27.7112 35.0748 28.2216C35.0748 28.732 35.156 29.206 35.3184 29.6435C35.4808 30.081 35.731 30.4339 36.0691 30.7024C36.4071 30.9709 36.838 31.1051 37.3617 31.1051ZM42.6129 34.8636V24.3636H43.7464V25.5767H43.8857C43.9718 25.4441 44.0911 25.2751 44.2436 25.0696C44.3994 24.8608 44.6214 24.6752 44.9098 24.5128C45.2015 24.3471 45.5959 24.2642 46.093 24.2642C46.736 24.2642 47.3028 24.425 47.7933 24.7464C48.2839 25.0679 48.6667 25.5237 48.9418 26.1136C49.2169 26.7036 49.3544 27.3996 49.3544 28.2017C49.3544 29.0104 49.2169 29.7114 48.9418 30.3047C48.6667 30.8946 48.2855 31.352 47.7983 31.6768C47.3111 31.9983 46.7493 32.1591 46.1129 32.1591C45.6224 32.1591 45.2296 32.0779 44.9347 31.9155C44.6397 31.7498 44.4126 31.5625 44.2536 31.3537C44.0945 31.1416 43.9718 30.9659 43.8857 30.8267H43.7862V34.8636H42.6129ZM43.7663 28.1818C43.7663 28.7585 43.8509 29.2673 44.0199 29.7081C44.1889 30.1456 44.4358 30.4886 44.7607 30.7372C45.0855 30.9825 45.4832 31.1051 45.9538 31.1051C46.4444 31.1051 46.8537 30.9759 47.1818 30.7173C47.5133 30.4555 47.7618 30.1042 47.9276 29.6634C48.0966 29.2192 48.1811 28.7254 48.1811 28.1818C48.1811 27.6449 48.0982 27.161 47.9325 26.7301C47.7701 26.2959 47.5232 25.9529 47.1918 25.701C46.8636 25.4458 46.451 25.3182 45.9538 25.3182C45.4766 25.3182 45.0755 25.4392 44.7507 25.6811C44.4259 25.9197 44.1806 26.2545 44.0149 26.6854C43.8492 27.1129 43.7663 27.6117 43.7663 28.1818ZM51.6264 34.8636C51.4276 34.8636 51.2502 34.8471 51.0945 34.8139C50.9387 34.7841 50.831 34.7543 50.7713 34.7244L51.0696 33.6903C51.3546 33.7633 51.6065 33.7898 51.8253 33.7699C52.044 33.75 52.2379 33.6522 52.407 33.4766C52.5793 33.3042 52.7367 33.0241 52.8793 32.6364L53.098 32.0398L50.2741 24.3636H51.5469L53.6548 30.4489H53.7344L55.8423 24.3636H57.1151L53.8736 33.1136C53.7277 33.508 53.5471 33.8345 53.3317 34.093C53.1162 34.3549 52.866 34.5488 52.581 34.6747C52.2992 34.8007 51.9811 34.8636 51.6264 34.8636ZM60.2148 21.8182L60.1154 29.1364H58.962L58.8626 21.8182H60.2148ZM59.5387 32.0795C59.2934 32.0795 59.083 31.9917 58.9073 31.8161C58.7317 31.6404 58.6438 31.4299 58.6438 31.1847C58.6438 30.9394 58.7317 30.7289 58.9073 30.5533C59.083 30.3776 59.2934 30.2898 59.5387 30.2898C59.784 30.2898 59.9944 30.3776 60.1701 30.5533C60.3458 30.7289 60.4336 30.9394 60.4336 31.1847C60.4336 31.3471 60.3922 31.4962 60.3093 31.6321C60.2298 31.768 60.122 31.8774 59.9862 31.9602C59.8536 32.0398 59.7044 32.0795 59.5387 32.0795Z" fill="#F5F5F5"/>
</g>
<defs>
<filter id="filter0_d_18_49" x="-3" y="-6" width="90" height="61" filterUnits="userSpaceOnUse" color-interpolation-filters="sRGB">
<feFlood flood-opacity="0" result="BackgroundImageFix"/>
<feColorMatrix in="SourceAlpha" type="matrix" values="0 0 0 0 0 0 0 0 0 0 0 0 0 0 0 0 0 0 127 0" result="hardAlpha"/>
<feOffset dy="2"/>
<feGaussianBlur stdDeviation="5"/>
<feComposite in2="hardAlpha" operator="out"/>
<feColorMatrix type="matrix" values="0 0 0 0 0 0 0 0 0 0 0 0 0 0 0 0 0 0 0.25 0"/>
<feBlend mode="normal" in2="BackgroundImageFix" result="effect1_dropShadow_18_49"/>
<feBlend mode="normal" in="SourceGraphic" in2="effect1_dropShadow_18_49" result="shape"/>
</filter>
</defs>
</svg>
